<svg width="25" height="24" viewBox="0 0 25 24" fill="none" xmlns="http://www.w3.org/2000/svg">
  <path d="M19.1664 3.79175C19.1664 3.37753 18.8306 3.04175 18.4164 3.04175H6.66642C6.25221 3.04175 5.91642 3.37753 5.91642 3.79175C5.91642 4.20596 6.25221 4.54175 6.66642 4.54175H18.4164C18.8306 4.54175 19.1664 4.20596 19.1664 3.79175ZM19.1664 7.79175C19.1664 7.37753 18.8306 7.04175 18.4164 7.04175H6.66642C6.25221 7.04175 5.91642 7.37753 5.91642 7.79175C5.91642 8.20596 6.25221 8.54175 6.66642 8.54175H12.9102C12.7485 10.4616 11.2332 12.1407 8.91642 12.1407H6.66642C6.25221 12.1407 5.91642 12.4765 5.91642 12.8907C5.91642 13.305 6.25221 13.6407 6.66642 13.6407H8.91642C11.9754 13.6407 14.2483 11.5202 14.4102 8.54175H18.4164C18.8306 8.54175 19.1664 8.20596 19.1664 7.79175ZM13.8828 13.6407L18.8828 20.3907C19.1306 20.7252 19.0642 21.197 18.7297 21.4448C18.3952 21.6925 17.9234 21.6261 17.6757 21.2916L12.6757 14.5416C12.428 14.2071 12.4944 13.7353 12.8289 13.4875C13.1634 13.2398 13.6353 13.3062 13.8828 13.6407Z" fill="currentColor"/>
</svg>
