<svg
  width="24"
  height="24"
  viewBox="0 0 24 24"
  fill="none"
  xmlns="http://www.w3.org/2000/svg"
>
  <path
    fill-rule="evenodd"
    clip-rule="evenodd"
    d="M12 4.10156C9.95824 4.10156 8.30306 5.75674 8.30306 7.79851C8.30306 9.84027 9.95824 11.4955 12 11.4955C14.0418 11.4955 15.697 9.84027 15.697 7.79851C15.697 5.75674 14.0418 4.10156 12 4.10156ZM6.80306 7.79851C6.80306 4.92837 9.13002 2.60156 12 2.60156C14.8699 2.60156 17.197 4.92837 17.197 7.79851C17.197 10.6687 14.8699 12.9955 12 12.9955C9.13002 12.9955 6.80306 10.6687 6.80306 7.79851ZM7.66252 15.3208C6.88769 16.0881 6.50377 17.0608 6.31705 17.8611C6.28384 18.0034 6.3211 18.1175 6.40712 18.2112C6.50161 18.3141 6.66659 18.3987 6.87591 18.3987H17.1249C17.3343 18.3987 17.4992 18.3141 17.5937 18.2112C17.6797 18.1175 17.717 18.0034 17.6838 17.8611C17.4971 17.0608 17.1132 16.0881 16.3383 15.3208C15.5821 14.572 14.3899 13.955 12.4504 13.955C10.511 13.955 9.31877 14.572 7.66252 15.3208ZM6.6071 14.2549C7.67163 13.2009 9.25602 12.455 11.5504 12.455C13.8448 12.455 15.4292 13.2009 16.4937 14.2549C17.5397 15.2906 18.0207 16.5607 18.2446 17.5202C18.5658 18.8971 17.4071 19.8987 16.2249 19.8987H7.77591C6.59369 19.8987 5.43504 18.8971 5.75628 17.5202C5.98015 16.5607 6.46117 15.2906 7.5071 14.2549L6.6071 14.2549Z"
    fill="currentColor"
  />
</svg>
